<svg version="1.0" xmlns="http://www.w3.org/2000/svg"
 width="225.000000pt" height="225.000000pt" viewBox="0 0 225.000000 225.000000"
 preserveAspectRatio="xMidYMid meet">

<g transform="translate(0.000000,225.000000) scale(0.100000,-0.100000)"
fill="#000000" stroke="none">
<path d="M1045 1751 c-139 -37 -351 -146 -408 -209 -35 -39 -47 -142 -47 -419
0 -260 7 -338 37 -396 16 -32 146 -120 237 -161 105 -48 208 -78 266 -78 92 0
321 96 437 183 86 64 88 75 88 459 l0 325 -25 50 c-26 51 -73 89 -192 153 -72
39 -231 98 -283 106 -25 3 -67 -2 -110 -13z m275 -405 c125 -50 265 -137 285
-177 34 -64 18 -92 -88 -162 -135 -89 -304 -157 -391 -157 -44 0 -158 35 -258
79 -66 28 -205 119 -223 144 -26 38 -19 86 18 121 72 66 252 157 391 196 76
21 125 13 266 -44z"/>
</g>
</svg>
